<svg width="160" height="47" viewBox="0 0 160 47" fill="none" xmlns="http://www.w3.org/2000/svg">
<g filter="url(#filter0_i_75_902)">
<path fill-rule="evenodd" clip-rule="evenodd" d="M74.8361 22.0368H66.8766V13.3209H74.6194C74.8757 13.3185 75.1292 13.361 75.3658 13.4458C75.6018 13.5306 75.8153 13.6559 75.9932 13.8141C76.1726 13.9674 76.3144 14.1502 76.4099 14.3517C76.505 14.5531 76.5521 14.769 76.5482 14.9865V16.1507C76.5573 16.4616 76.4614 16.7679 76.2729 17.0332C76.0843 17.2985 75.8109 17.5114 75.485 17.6465C75.8652 17.7567 76.194 17.9683 76.4242 18.2505C76.6544 18.5325 76.7736 18.8706 76.7649 19.215V20.3712C76.7689 20.5887 76.7216 20.8047 76.6263 21.0061C76.5308 21.2075 76.389 21.3903 76.2095 21.5436C76.0316 21.7018 75.8182 21.8271 75.582 21.9119C75.3459 21.9968 75.092 22.0392 74.8361 22.0368ZM73.6505 20.0964C73.7638 20.0924 73.8712 20.0519 73.9516 19.983C74.0316 19.9141 74.0787 19.8218 74.0834 19.7244V19.021C74.0787 18.9236 74.0316 18.8314 73.9516 18.7625C73.8712 18.6936 73.7638 18.653 73.6505 18.649H69.558V20.0964H73.6505ZM73.4342 16.7087C73.4921 16.709 73.5495 16.6992 73.6029 16.6798C73.6565 16.6603 73.7047 16.6316 73.7447 16.5955C73.7843 16.5616 73.8157 16.5213 73.8366 16.4768C73.8576 16.4324 73.868 16.3847 73.8668 16.3367V15.6414C73.8691 15.592 73.8597 15.5428 73.8383 15.4969C73.8172 15.451 73.7855 15.4093 73.7447 15.3746C73.7047 15.3384 73.6565 15.3097 73.6029 15.2903C73.5495 15.2708 73.4921 15.261 73.4342 15.2614H69.558V16.7087H73.4342ZM80.6973 22.0368H78.0068V20.1529H80.6973V22.0045V22.0368ZM84.8749 22.0368H82.184V13.3209H84.8749V22.0368ZM97.6699 22.0368H94.9794L89.5975 16.6196V22.0368H86.9071V13.3209H89.5975L94.9794 18.7381V13.3209H97.6699V22.0368ZM106.42 22.0368H103.155L98.7522 13.3209H101.659L104.773 19.4818L107.897 13.3209H110.804L106.392 22.0368H106.42ZM120.796 22.0368H113.693C113.179 22.0347 112.688 21.8586 112.325 21.5466C111.962 21.2347 111.757 20.8123 111.754 20.3712V14.9865C111.757 14.5454 111.962 14.123 112.325 13.8111C112.688 13.4992 113.179 13.323 113.693 13.3209H120.796V15.3018H114.869C114.812 15.3025 114.757 15.3128 114.705 15.3322C114.653 15.3517 114.607 15.3798 114.568 15.415C114.525 15.4493 114.492 15.4907 114.47 15.5366C114.447 15.5825 114.435 15.6319 114.436 15.6818V16.749H119.93V18.6896H114.445V19.7649C114.45 19.8622 114.497 19.9546 114.577 20.0235C114.657 20.0924 114.765 20.1328 114.878 20.1368H120.805V22.0773L120.796 22.0368ZM130.054 22.0368H122.414V20.0964H128.868C128.926 20.0968 128.984 20.087 129.037 20.0675C129.09 20.048 129.138 20.0192 129.178 19.9831C129.218 19.9493 129.249 19.909 129.271 19.8645C129.292 19.8201 129.302 19.7724 129.301 19.7244V19.021C129.302 18.973 129.292 18.9253 129.271 18.8809C129.249 18.8364 129.218 18.7961 129.178 18.7622C129.138 18.7261 129.09 18.6974 129.037 18.6779C128.984 18.6585 128.926 18.6487 128.868 18.649H124.249C123.995 18.6515 123.743 18.6097 123.509 18.5263C123.275 18.443 123.062 18.3196 122.884 18.164C122.7 18.0111 122.555 17.8276 122.456 17.6245C122.357 17.4216 122.308 17.2035 122.311 16.9835V14.9865C122.316 14.546 122.521 14.1248 122.884 13.8134C123.246 13.5019 123.736 13.3251 124.249 13.3209H131.775V15.3018H125.434C125.318 15.3028 125.206 15.3435 125.124 15.415C125.083 15.4497 125.051 15.4914 125.03 15.5373C125.009 15.5833 124.999 15.6325 125.001 15.6818V16.3772C125.001 16.425 125.011 16.4728 125.032 16.5172C125.053 16.5617 125.084 16.6021 125.124 16.6359C125.206 16.7074 125.318 16.748 125.434 16.749H130.054C130.311 16.7423 130.566 16.7808 130.805 16.8621C131.044 16.9435 131.259 17.0659 131.441 17.2219C131.623 17.3779 131.766 17.5643 131.861 17.7694C131.955 17.9745 132 18.1941 131.992 18.4146V20.4116C131.995 20.6297 131.946 20.8459 131.849 21.0475C131.752 21.2489 131.609 21.4314 131.427 21.584C131.249 21.7422 131.036 21.8675 130.8 21.9524C130.564 22.0372 130.31 22.0796 130.054 22.0773V22.0368ZM139.33 22.0368H136.63V15.3018H133.027V13.3613H142.924V15.3018H139.33V22.0773V22.0368ZM72.1076 26.9768H66.6885V33.9465H72.1076C72.4252 33.9475 72.7406 33.8946 73.0345 33.7906C73.3285 33.6865 73.5954 33.5332 73.82 33.3401C74.045 33.1471 74.2229 32.9174 74.3441 32.6648C74.4649 32.4123 74.5267 32.1416 74.5255 31.8684V29.0467C74.5267 28.7736 74.4649 28.5028 74.3441 28.2503C74.2229 27.9977 74.045 27.7683 73.82 27.575C73.5954 27.3819 73.3285 27.2289 73.0345 27.1249C72.7406 27.0209 72.4252 26.9679 72.1076 26.9687V26.9768ZM73.0483 31.7228C73.0483 31.9982 72.922 32.2622 72.6962 32.4578C72.4708 32.653 72.1642 32.7638 71.8441 32.7659H68.1467V28.1573H71.8441C72.1627 28.1595 72.4676 28.269 72.693 28.4628C72.9184 28.6565 73.046 28.9183 73.0483 29.1923V31.7228ZM75.8708 28.311V32.6123C75.8708 32.7876 75.9112 32.9612 75.9892 33.1228C76.0669 33.2847 76.1814 33.4317 76.3255 33.5556C76.4698 33.6795 76.6409 33.7777 76.829 33.8449C77.0176 33.9119 77.2192 33.9465 77.4232 33.9465H82.4569V32.7659H77.7525C77.7073 32.7659 77.6625 32.7582 77.6209 32.7431C77.5789 32.728 77.5412 32.7056 77.5096 32.6781C77.4783 32.6501 77.4534 32.617 77.4367 32.5807C77.4205 32.5445 77.4126 32.5056 77.4138 32.467V31.06H81.7982V29.8551H77.4138V28.4485C77.4126 28.4096 77.4205 28.371 77.4367 28.3345C77.4534 28.2985 77.4783 28.2654 77.5096 28.2374C77.5412 28.2096 77.5789 28.1875 77.6209 28.172C77.6625 28.1569 77.7073 28.1492 77.7525 28.1492H82.4569V26.9687H77.4609C77.0492 26.9687 76.6543 27.1094 76.3632 27.3595C76.0721 27.6098 75.9085 27.9492 75.9085 28.3028L75.8708 28.311ZM87.4525 32.5314L84.5738 26.9768H82.9837L86.5965 33.9465H88.318L91.9216 26.9768H90.3597L87.4716 32.5314H87.4525ZM92.6553 28.311V32.6123C92.6542 32.7872 92.6934 32.9604 92.7701 33.1222C92.847 33.2839 92.9607 33.4314 93.1041 33.5552C93.2476 33.6791 93.4179 33.7777 93.6056 33.8447C93.7934 33.9119 93.9951 33.9465 94.1983 33.9465H99.1943V32.7659H94.4901C94.4454 32.7648 94.4019 32.7564 94.361 32.7409C94.3206 32.725 94.2838 32.7027 94.2533 32.6751C94.2228 32.6471 94.1987 32.6145 94.1828 32.5787C94.1669 32.5431 94.1594 32.5052 94.1606 32.467V31.06H98.5354V29.8551H94.1606V28.4485C94.1594 28.4102 94.1669 28.372 94.1828 28.3364C94.1987 28.3007 94.2228 28.268 94.2533 28.2404C94.2838 28.2124 94.3206 28.1901 94.361 28.1746C94.4019 28.1587 94.4454 28.1503 94.4901 28.1492H99.1943V26.9687H94.2173C94.0136 26.9687 93.8123 27.0032 93.6246 27.0705C93.4369 27.1378 93.2661 27.236 93.1228 27.3603C92.9793 27.4841 92.866 27.6312 92.7887 27.7929C92.712 27.9547 92.6731 28.1283 92.6743 28.3028L92.6553 28.311ZM101.951 26.9768H100.483V33.9465H106.504V32.7659H101.951V26.9768ZM113.777 26.9768H108.96C108.548 26.9768 108.154 27.1176 107.862 27.3676C107.571 27.6179 107.408 27.9573 107.408 28.311V32.6123C107.408 32.7876 107.448 32.9612 107.526 33.1228C107.604 33.2847 107.718 33.4317 107.862 33.5556C108.007 33.6795 108.178 33.7777 108.366 33.8449C108.554 33.9119 108.756 33.9465 108.96 33.9465H113.777C113.981 33.9465 114.182 33.9119 114.37 33.8447C114.558 33.7777 114.728 33.6791 114.872 33.5552C115.015 33.4314 115.129 33.2839 115.206 33.1222C115.282 32.9604 115.322 32.7872 115.32 32.6123V28.311C115.322 28.1364 115.282 27.9628 115.206 27.801C115.129 27.6392 115.015 27.4923 114.872 27.3683C114.728 27.244 114.558 27.1459 114.37 27.0786C114.182 27.0114 113.981 26.9768 113.777 26.9768ZM113.871 32.467C113.869 32.5457 113.831 32.6203 113.767 32.6761C113.702 32.7317 113.615 32.764 113.523 32.7659H109.214C109.169 32.7659 109.124 32.7582 109.083 32.7431C109.04 32.728 109.003 32.7056 108.971 32.6781C108.94 32.6501 108.915 32.617 108.899 32.5807C108.882 32.5445 108.874 32.5056 108.875 32.467V28.4243C108.874 28.3853 108.882 28.3466 108.899 28.3102C108.915 28.2742 108.94 28.2412 108.971 28.2132C109.003 28.1853 109.04 28.1632 109.083 28.1478C109.124 28.1327 109.169 28.1249 109.214 28.1249H113.504C113.596 28.1271 113.683 28.1591 113.748 28.215C113.813 28.2706 113.85 28.3456 113.853 28.4243V32.467H113.871ZM122.904 26.9768H116.882V33.9465H118.35V31.4725H122.913C123.117 31.4725 123.32 31.4376 123.509 31.3699C123.698 31.3026 123.87 31.2034 124.014 31.0787C124.158 30.9541 124.272 30.8059 124.35 30.643C124.427 30.4805 124.466 30.3059 124.465 30.1302V28.3191C124.465 27.9654 124.302 27.6261 124.01 27.3756C123.719 27.1257 123.325 26.9848 122.913 26.9848L122.904 26.9768ZM122.997 29.9845C122.995 30.0625 122.957 30.1368 122.892 30.1908C122.827 30.2452 122.74 30.2758 122.649 30.2758H118.35V28.1573H122.649C122.742 28.1573 122.83 28.1889 122.896 28.2448C122.961 28.301 122.997 28.3772 122.997 28.4565V29.9845ZM133.036 26.9768H132.961L130.138 30.6475L127.316 26.9768H125.735V33.9465H127.203V29.0952L129.386 31.9493H130.853L133.045 29.0952V33.9465H134.514V26.9768H133.036ZM136.057 28.311V32.6123C136.055 32.7872 136.094 32.9604 136.172 33.1222C136.248 33.2839 136.361 33.4314 136.504 33.5552C136.648 33.6791 136.819 33.7777 137.006 33.8447C137.195 33.9119 137.396 33.9465 137.599 33.9465H142.595V32.7659H137.89C137.846 32.7648 137.803 32.7564 137.763 32.7409C137.721 32.725 137.685 32.7027 137.654 32.6751C137.623 32.6471 137.6 32.6145 137.583 32.5787C137.568 32.5431 137.56 32.5052 137.561 32.467V31.06H141.937V29.8551H137.561V28.4485C137.56 28.4102 137.568 28.372 137.583 28.3364C137.6 28.3007 137.623 28.268 137.654 28.2404C137.685 28.2124 137.721 28.1901 137.763 28.1746C137.803 28.1587 137.846 28.1503 137.89 28.1492H142.595V26.9687H137.599C137.396 26.9687 137.195 27.0032 137.006 27.0705C136.819 27.1378 136.648 27.236 136.504 27.3603C136.361 27.4841 136.248 27.6312 136.172 27.7929C136.094 27.9547 136.055 28.1283 136.057 28.3028V28.311ZM150.347 32.0221L145.361 26.9768H143.884V33.9465H145.361V28.901L150.347 33.9465H151.805V26.9768H150.347V32.0221ZM152.765 28.1573H155.645V33.9465H157.112V28.1573H160V26.9768H152.765V28.1573Z" fill="#402E32"/>
<path d="M53.3367 6.44727H52.001V40.826H53.3367V6.44727Z" fill="#D4B7A5"/>
</g>
<path fill-rule="evenodd" clip-rule="evenodd" d="M29.8914 29.4335L2.90809 43.6476C2.62874 43.7994 2.3077 43.8854 1.97737 43.8965C1.64703 43.9078 1.31905 43.8442 1.02642 43.7122C0.733241 43.5843 0.488828 43.3869 0.322097 43.1432C0.155364 42.8997 0.0732858 42.6199 0.0856055 42.3376L0.142055 35.5459C0.14669 35.1242 0.328039 34.7179 0.652907 34.4017C0.977734 34.0851 1.42434 33.8803 1.91083 33.8237C2.22377 33.7859 2.52324 33.6895 2.78818 33.5414C3.05311 33.3932 3.27708 33.1972 3.44436 32.9668L7.77223 27.1614C7.95215 26.9132 8.2031 26.7085 8.50119 26.5669C8.79928 26.4254 9.13461 26.3518 9.47516 26.353L29.0915 26.4015C29.4975 26.3941 29.8937 26.5088 30.2114 26.7257C30.5294 26.943 30.7489 27.2486 30.8321 27.5901C30.9192 27.9446 30.8757 28.3132 30.707 28.6452C30.5382 28.9772 30.253 29.2555 29.8914 29.4416V29.4335ZM0.000913179 29.8217C-0.0121196 30.1685 0.114682 30.5082 0.359888 30.7839C0.605054 31.0593 0.953532 31.2535 1.3463 31.3336C1.75745 31.4119 2.18681 31.3755 2.5724 31.2303C2.958 31.0847 3.27986 30.838 3.49143 30.5251L13.0409 17.7099C13.2295 17.4757 13.3428 17.2026 13.3692 16.9188C13.3956 16.6348 13.3343 16.3499 13.1915 16.0928L9.4281 9.25267C9.28443 9.01115 9.20951 8.74372 9.20951 8.47247C9.20951 8.20116 9.28443 7.93377 9.4281 7.69222C9.65476 7.32827 9.71085 6.90359 9.58493 6.50524C9.45899 6.10688 9.16052 5.76496 8.75071 5.54963L3.10568 2.8087C2.80822 2.66763 2.47182 2.5984 2.13222 2.60836C1.79266 2.61833 1.46255 2.70712 1.17695 2.86532C0.885079 3.02135 0.645063 3.23959 0.480194 3.49883C0.315363 3.75806 0.231303 4.04954 0.236135 4.34492L0.0197297 29.7732L0.000913179 29.8217ZM14.2734 7.80542C13.911 7.6295 13.4908 7.56185 13.0788 7.61306C12.6668 7.66427 12.2862 7.83145 11.9966 8.08842C11.6871 8.3279 11.4746 8.64603 11.39 8.99645C11.3054 9.34691 11.3531 9.7114 11.5262 10.037L19.307 24.1135C19.4492 24.3783 19.6778 24.6014 19.965 24.7566C20.2523 24.9117 20.5858 24.9916 20.9253 24.9868H30.7382C31.0658 24.9669 31.3934 25.026 31.6843 25.1576C31.975 25.289 32.2174 25.4874 32.3845 25.7305C32.6781 26.0492 33.0948 26.2669 33.5591 26.3441C34.0237 26.4214 34.5046 26.353 34.9155 26.151L40.344 23.2888C40.6305 23.1337 40.867 22.919 41.0314 22.6646C41.1961 22.4103 41.2832 22.1243 41.2849 21.8334C41.3019 21.553 41.227 21.2741 41.0689 21.0283C40.9114 20.7825 40.6764 20.5797 40.3912 20.4426L14.2734 7.80542Z" fill="#D7B56D"/>
<defs>
<filter id="filter0_i_75_902" x="52.001" y="6.44727" width="107.999" height="39.5402" filterUnits="userSpaceOnUse" color-interpolation-filters="sRGB">
<feFlood flood-opacity="0" result="BackgroundImageFix"/>
<feBlend mode="normal" in="SourceGraphic" in2="BackgroundImageFix" result="shape"/>
<feColorMatrix in="SourceAlpha" type="matrix" values="0 0 0 0 0 0 0 0 0 0 0 0 0 0 0 0 0 0 127 0" result="hardAlpha"/>
<feOffset dy="5.16129"/>
<feGaussianBlur stdDeviation="32.2581"/>
<feComposite in2="hardAlpha" operator="arithmetic" k2="-1" k3="1"/>
<feColorMatrix type="matrix" values="0 0 0 0 0 0 0 0 0 0 0 0 0 0 0 0 0 0 0.28 0"/>
<feBlend mode="normal" in2="shape" result="effect1_innerShadow_75_902"/>
</filter>
</defs>
</svg>
