<svg width="155" height="45" viewBox="0 0 155 45" fill="none" xmlns="http://www.w3.org/2000/svg">
<path fill-rule="evenodd" clip-rule="evenodd" d="M72.4975 20.9635H64.7867V12.4371H72.2876C72.5359 12.4347 72.7815 12.4763 73.0106 12.5593C73.2392 12.6423 73.4461 12.7648 73.6185 12.9196C73.7922 13.0695 73.9296 13.2484 74.0221 13.4455C74.1142 13.6425 74.1599 13.8537 74.1561 14.0665V15.2054C74.1649 15.5095 74.072 15.8092 73.8894 16.0687C73.7067 16.3282 73.4419 16.5365 73.1261 16.6686C73.4945 16.7764 73.813 16.9834 74.036 17.2595C74.259 17.5354 74.3745 17.8662 74.366 18.2031V19.3342C74.3699 19.5469 74.3241 19.7582 74.2317 19.9552C74.1392 20.1523 74.0019 20.3311 73.828 20.4811C73.6556 20.6358 73.4489 20.7584 73.2201 20.8413C72.9914 20.9244 72.7454 20.9659 72.4975 20.9635ZM71.349 19.0653C71.4587 19.0614 71.5627 19.0218 71.6406 18.9544C71.7181 18.887 71.7637 18.7967 71.7684 18.7014V18.0133C71.7637 17.918 71.7181 17.8278 71.6406 17.7604C71.5627 17.693 71.4587 17.6533 71.349 17.6494H67.3844V19.0653H71.349ZM71.1394 15.7512C71.1955 15.7516 71.2511 15.742 71.3029 15.7229C71.3547 15.7039 71.4015 15.6759 71.4402 15.6405C71.4786 15.6073 71.509 15.5679 71.5292 15.5244C71.5496 15.481 71.5596 15.4343 71.5585 15.3873V14.7071C71.5607 14.6589 71.5516 14.6107 71.5309 14.5658C71.5105 14.5209 71.4797 14.4801 71.4402 14.4461C71.4015 14.4108 71.3547 14.3827 71.3029 14.3637C71.2511 14.3446 71.1955 14.335 71.1394 14.3354H67.3844V15.7512H71.1394ZM78.1755 20.9635H75.5691V19.1206H78.1755V20.932V20.9635ZM82.2226 20.9635H79.6157V12.4371H82.2226V20.9635ZM94.6177 20.9635H92.0114L86.7976 15.6641V20.9635H84.1912V12.4371H86.7976L92.0114 17.7365V12.4371H94.6177V20.9635ZM103.094 20.9635H99.9316L95.6662 12.4371H98.4825L101.499 18.4641L104.525 12.4371H107.341L103.067 20.9635H103.094ZM117.021 20.9635H110.14C109.642 20.9615 109.166 20.7892 108.815 20.484C108.463 20.1789 108.264 19.7656 108.262 19.3342V14.0665C108.264 13.635 108.463 13.2217 108.815 12.9166C109.166 12.6115 109.642 12.4392 110.14 12.4371H117.021V14.3749H111.279C111.224 14.3756 111.171 14.3857 111.12 14.4047C111.07 14.4237 111.025 14.4513 110.987 14.4856C110.946 14.5193 110.914 14.5598 110.892 14.6047C110.87 14.6496 110.859 14.6979 110.86 14.7467V15.7907H116.182V17.6891H110.869V18.741C110.873 18.8362 110.919 18.9266 110.997 18.994C111.074 19.0614 111.178 19.1009 111.288 19.1048H117.03V21.0032L117.021 20.9635ZM125.99 20.9635H118.589V19.0653H124.841C124.897 19.0657 124.953 19.0561 125.005 19.037C125.056 19.018 125.102 18.9898 125.141 18.9545C125.18 18.9214 125.21 18.882 125.231 18.8385C125.251 18.7951 125.261 18.7484 125.26 18.7014V18.0133C125.261 17.9664 125.251 17.9197 125.231 17.8763C125.21 17.8327 125.18 17.7933 125.141 17.7601C125.102 17.7248 125.056 17.6968 125.005 17.6777C124.953 17.6586 124.897 17.649 124.841 17.6494H120.366C120.12 17.6518 119.876 17.6109 119.649 17.5294C119.422 17.4478 119.216 17.3272 119.044 17.1749C118.866 17.0254 118.725 16.8459 118.629 16.6472C118.534 16.4486 118.486 16.2353 118.488 16.0201V14.0665C118.493 13.6356 118.692 13.2235 119.044 12.9189C119.395 12.6142 119.869 12.4412 120.366 12.4371H127.657V14.3749H121.515C121.401 14.3759 121.293 14.4157 121.214 14.4856C121.174 14.5196 121.143 14.5604 121.123 14.6053C121.102 14.6503 121.093 14.6984 121.095 14.7467V15.4269C121.094 15.4738 121.104 15.5205 121.125 15.5639C121.145 15.6074 121.175 15.647 121.214 15.68C121.293 15.75 121.401 15.7897 121.515 15.7907H125.99C126.239 15.7842 126.486 15.8218 126.717 15.9013C126.949 15.9809 127.157 16.1007 127.334 16.2533C127.51 16.406 127.649 16.5882 127.74 16.7889C127.831 16.9895 127.875 17.2043 127.867 17.4201V19.3737C127.87 19.587 127.822 19.7986 127.729 19.9957C127.635 20.1928 127.496 20.3713 127.32 20.5206C127.147 20.6753 126.941 20.7979 126.712 20.881C126.484 20.9639 126.237 21.0054 125.99 21.0032V20.9635ZM134.976 20.9635H132.36V14.3749H128.87V12.4766H138.457V14.3749H134.976V21.0032V20.9635ZM69.8542 25.7961H64.6045V32.6143H69.8542C70.162 32.6153 70.4675 32.5635 70.7522 32.4618C71.037 32.3599 71.2956 32.21 71.5131 32.0211C71.7311 31.8323 71.9035 31.6076 72.0209 31.3605C72.1379 31.1134 72.1977 30.8486 72.1966 30.5814V27.8211C72.1977 27.5538 72.1379 27.289 72.0209 27.042C71.9035 26.7948 71.7311 26.5704 71.5131 26.3813C71.2956 26.1925 71.037 26.0428 70.7522 25.941C70.4675 25.8393 70.162 25.7874 69.8542 25.7882V25.7961ZM70.7656 30.439C70.7656 30.7084 70.6432 30.9666 70.4245 31.158C70.2061 31.349 69.9091 31.4573 69.599 31.4594H66.0171V26.951H69.599C69.9076 26.9531 70.203 27.0603 70.4214 27.2499C70.6397 27.4394 70.7634 27.6955 70.7656 27.9634V30.439ZM73.4999 27.1013V31.3091C73.4999 31.4806 73.539 31.6504 73.6146 31.8086C73.6899 31.9669 73.8007 32.1108 73.9404 32.2319C74.0801 32.3531 74.2459 32.4492 74.4281 32.5149C74.6109 32.5805 74.8061 32.6143 75.0037 32.6143H79.8801V31.4594H75.3227C75.279 31.4594 75.2356 31.4519 75.1952 31.4371C75.1546 31.4223 75.1181 31.4004 75.0875 31.3735C75.0571 31.3461 75.033 31.3138 75.0169 31.2782C75.0011 31.2428 74.9935 31.2047 74.9946 31.167V29.7906H79.242V28.6119H74.9946V27.2359C74.9935 27.1978 75.0011 27.16 75.0169 27.1243C75.033 27.0891 75.0571 27.0568 75.0875 27.0294C75.1181 27.0021 75.1546 26.9805 75.1952 26.9654C75.2356 26.9506 75.279 26.943 75.3227 26.943H79.8801V25.7882H75.0402C74.6415 25.7882 74.2589 25.9259 73.9769 26.1705C73.6949 26.4154 73.5364 26.7474 73.5364 27.0934L73.4999 27.1013ZM84.7196 31.23L81.9309 25.7961H80.3905L83.8904 32.6143H85.5581L89.0491 25.7961H87.536L84.7381 31.23H84.7196ZM89.7599 27.1013V31.3091C89.7587 31.4803 89.7967 31.6497 89.8711 31.8079C89.9456 31.9661 90.0557 32.1104 90.1946 32.2316C90.3336 32.3527 90.4986 32.4492 90.6805 32.5147C90.8624 32.5805 91.0577 32.6143 91.2546 32.6143H96.0945V31.4594H91.5374C91.494 31.4583 91.4519 31.4501 91.4122 31.4349C91.3731 31.4194 91.3375 31.3976 91.3079 31.3706C91.2784 31.3432 91.255 31.3112 91.2396 31.2763C91.2242 31.2414 91.217 31.2043 91.2181 31.167V29.7906H95.4562V28.6119H91.2181V27.2359C91.217 27.1984 91.2242 27.161 91.2396 27.1262C91.255 27.0912 91.2784 27.0593 91.3079 27.0323C91.3375 27.0049 91.3731 26.983 91.4122 26.9679C91.4519 26.9524 91.494 26.9442 91.5374 26.943H96.0945V25.7882H91.273C91.0757 25.7882 90.8807 25.822 90.6989 25.8878C90.517 25.9537 90.3516 26.0497 90.2127 26.1713C90.0737 26.2924 89.964 26.4363 89.8891 26.5945C89.8147 26.7528 89.7771 26.9226 89.7782 27.0934L89.7599 27.1013ZM98.765 25.7961H97.3432V32.6143H103.176V31.4594H98.765V25.7961ZM110.221 25.7961H105.555C105.156 25.7961 104.774 25.9338 104.492 26.1785C104.21 26.4233 104.051 26.7553 104.051 27.1013V31.3091C104.051 31.4806 104.09 31.6504 104.166 31.8086C104.241 31.9669 104.352 32.1108 104.492 32.2319C104.631 32.3531 104.797 32.4492 104.98 32.5149C105.162 32.5805 105.358 32.6143 105.555 32.6143H110.221C110.419 32.6143 110.614 32.5805 110.796 32.5147C110.978 32.4492 111.143 32.3527 111.282 32.2316C111.421 32.1104 111.531 31.9661 111.605 31.8079C111.68 31.6497 111.718 31.4803 111.717 31.3091V27.1013C111.718 26.9305 111.68 26.7608 111.605 26.6025C111.531 26.4442 111.421 26.3004 111.282 26.1791C111.143 26.0575 110.978 25.9616 110.796 25.8957C110.614 25.83 110.419 25.7961 110.221 25.7961ZM110.313 31.167C110.311 31.244 110.274 31.3169 110.212 31.3716C110.149 31.426 110.064 31.4575 109.975 31.4594H105.801C105.757 31.4594 105.714 31.4519 105.674 31.4371C105.633 31.4223 105.596 31.4004 105.566 31.3735C105.535 31.3461 105.511 31.3138 105.496 31.2782C105.479 31.2428 105.472 31.2047 105.473 31.167V27.2121C105.472 27.174 105.479 27.1362 105.496 27.1006C105.511 27.0653 105.535 27.033 105.566 27.0056C105.596 26.9784 105.633 26.9568 105.674 26.9416C105.714 26.9269 105.757 26.9193 105.801 26.9193H109.957C110.046 26.9214 110.131 26.9527 110.193 27.0074C110.256 27.0618 110.292 27.1351 110.295 27.2121V31.167H110.313ZM119.063 25.7961H113.229V32.6143H114.651V30.1941H119.072C119.27 30.1941 119.466 30.1599 119.65 30.0938C119.833 30.0279 119.999 29.9308 120.138 29.8089C120.278 29.687 120.389 29.542 120.464 29.3826C120.539 29.2237 120.577 29.0529 120.576 28.881V27.1093C120.576 26.7633 120.417 26.4313 120.135 26.1863C119.853 25.9418 119.471 25.804 119.072 25.804L119.063 25.7961ZM119.154 28.7385C119.151 28.8147 119.115 28.8874 119.052 28.9403C118.989 28.9935 118.904 29.0234 118.816 29.0234H114.651V26.951H118.816C118.906 26.951 118.992 26.9819 119.055 27.0366C119.118 27.0916 119.154 27.1661 119.154 27.2437V28.7385ZM128.879 25.7961H128.806L126.071 29.387L123.337 25.7961H121.806V32.6143H123.228V27.8685L125.342 30.6605H126.764L128.887 27.8685V32.6143H130.31V25.7961H128.879ZM131.805 27.1013V31.3091C131.804 31.4803 131.841 31.6497 131.916 31.8079C131.99 31.9661 132.1 32.1104 132.239 32.2316C132.377 32.3527 132.544 32.4492 132.725 32.5147C132.907 32.5805 133.102 32.6143 133.299 32.6143H138.139V31.4594H133.581C133.539 31.4583 133.496 31.4501 133.457 31.4349C133.417 31.4194 133.382 31.3976 133.352 31.3706C133.322 31.3432 133.3 31.3112 133.284 31.2763C133.269 31.2414 133.261 31.2043 133.262 31.167V29.7906H137.501V28.6119H133.262V27.2359C133.261 27.1984 133.269 27.161 133.284 27.1262C133.3 27.0912 133.322 27.0593 133.352 27.0323C133.382 27.0049 133.417 26.983 133.457 26.9679C133.496 26.9524 133.539 26.9442 133.581 26.943H138.139V25.7882H133.299C133.102 25.7882 132.907 25.822 132.725 25.8878C132.544 25.9537 132.377 26.0497 132.239 26.1713C132.1 26.2924 131.99 26.4363 131.916 26.5945C131.841 26.7528 131.804 26.9226 131.805 27.0934V27.1013ZM145.649 30.7317L140.819 25.7961H139.387V32.6143H140.819V27.6785L145.649 32.6143H147.061V25.7961H145.649V30.7317ZM147.991 26.951H150.781V32.6143H152.202V26.951H155V25.7961H147.991V26.951Z" fill="white"/>
<path d="M51.67 5.71289H50.376V39.3443H51.67V5.71289Z" fill="white"/>
<path fill-rule="evenodd" clip-rule="evenodd" d="M28.9573 28.1994L2.81721 42.1045C2.54659 42.2531 2.23559 42.3371 1.91558 42.348C1.59556 42.3591 1.27782 42.2969 0.994343 42.1677C0.710328 42.0426 0.473552 41.8495 0.312031 41.6111C0.150509 41.3729 0.0709956 41.0992 0.0829304 40.823L0.137616 34.1789C0.142106 33.7664 0.317788 33.3689 0.632504 33.0597C0.94718 32.7499 1.37983 32.5496 1.85111 32.4942C2.15427 32.4572 2.44439 32.3629 2.70105 32.218C2.9577 32.0731 3.17467 31.8814 3.33672 31.6559L7.52935 25.9767C7.70365 25.734 7.94675 25.5336 8.23553 25.3952C8.5243 25.2567 8.84915 25.1847 9.17906 25.1859L28.1824 25.2333C28.5758 25.2262 28.9595 25.3384 29.2673 25.5506C29.5754 25.7631 29.788 26.062 29.8686 26.3962C29.953 26.7429 29.9109 27.1035 29.7474 27.4283C29.5839 27.7531 29.3076 28.0254 28.9573 28.2074V28.1994ZM0.000884642 28.5793C-0.0117408 28.9184 0.111099 29.2508 0.348641 29.5205C0.586146 29.7899 0.923734 29.9799 1.30422 30.0583C1.70253 30.1349 2.11847 30.0993 2.49201 29.9571C2.86556 29.8148 3.17736 29.5734 3.38232 29.2673L12.6334 16.7307C12.8161 16.5016 12.9259 16.2345 12.9514 15.9568C12.977 15.679 12.9176 15.4002 12.7793 15.1488L9.13347 8.45733C8.99429 8.22106 8.92171 7.95944 8.92171 7.69409C8.92171 7.42868 8.99429 7.1671 9.13347 6.9308C9.35305 6.57477 9.40739 6.15932 9.2854 5.76963C9.1634 5.37993 8.87425 5.04544 8.47725 4.83479L3.00863 2.15345C2.72046 2.01544 2.39457 1.94772 2.06559 1.95746C1.73664 1.96721 1.41685 2.05407 1.14017 2.20883C0.85742 2.36148 0.624905 2.57497 0.465187 2.82857C0.305508 3.08217 0.224075 3.36731 0.228756 3.65627L0.0191131 28.5318L0.000884642 28.5793ZM13.8274 7.04154C13.4762 6.86944 13.0693 6.80326 12.6701 6.85336C12.271 6.90346 11.9023 7.067 11.6217 7.31838C11.3219 7.55266 11.116 7.86388 11.0341 8.20668C10.9521 8.54952 10.9983 8.90608 11.166 9.22457L18.7036 22.9951C18.8414 23.2541 19.0629 23.4723 19.3411 23.6242C19.6194 23.7759 19.9425 23.8541 20.2714 23.8494H29.7776C30.095 23.83 30.4124 23.8878 30.6941 24.0165C30.9757 24.145 31.2106 24.3392 31.3725 24.577C31.6569 24.8887 32.0606 25.1017 32.5104 25.1772C32.9605 25.2528 33.4264 25.1859 33.8244 24.9883L39.0832 22.1884C39.3607 22.0366 39.5899 21.8266 39.7491 21.5777C39.9087 21.3289 39.9931 21.0492 39.9948 20.7645C40.0112 20.4902 39.9386 20.2175 39.7855 19.977C39.6329 19.7365 39.4053 19.5381 39.129 19.404L13.8274 7.04154Z" fill="white"/>
</svg>
