<svg width="70" height="70" viewBox="0 0 70 70" fill="none" xmlns="http://www.w3.org/2000/svg">
<rect width="70" height="70" rx="35" fill="#D7B56D"/>
<path fill-rule="evenodd" clip-rule="evenodd" d="M19.5964 22.5586C19.5964 22.4015 19.6589 22.2508 19.77 22.1397C19.8811 22.0286 20.0318 21.9662 20.1889 21.9662H40.3321C40.4892 21.9662 40.6399 22.0286 40.7511 22.1397C40.8622 22.2508 40.9246 22.4015 40.9246 22.5586V35.5925C40.9246 35.7496 40.8622 35.9003 40.7511 36.0114C40.6399 36.1225 40.4892 36.1849 40.3321 36.1849H32.0378C31.5666 36.1853 31.1149 36.3729 30.7819 36.7063L24.336 43.1521V37.9622C24.336 37.4909 24.1488 37.0388 23.8154 36.7055C23.4821 36.3722 23.0301 36.1849 22.5587 36.1849H20.1889C20.0318 36.1849 19.8811 36.1225 19.77 36.0114C19.6589 35.9003 19.5964 35.7496 19.5964 35.5925V22.5586ZM20.1889 18.4115C19.089 18.4115 18.0342 18.8484 17.2564 19.6261C16.4787 20.4039 16.0417 21.4587 16.0417 22.5586V35.5925C16.0417 37.8817 17.8997 39.7396 20.1889 39.7396H20.7813V43.3962C20.7816 44.0789 20.9842 44.7463 21.3636 45.3138C21.743 45.8814 22.2822 46.3238 22.913 46.585C23.5437 46.8461 24.2378 46.9146 24.9074 46.7814C25.577 46.6482 26.1921 46.3198 26.675 45.8371L32.7748 39.7396H40.3321C41.4319 39.7396 42.4867 39.3027 43.2645 38.5249C44.0423 37.7472 44.4792 36.6924 44.4792 35.5925V22.5586C44.4792 21.4587 44.0423 20.4039 43.2645 19.6261C42.4867 18.8484 41.4319 18.4115 40.3321 18.4115H20.1889ZM50.4037 27.2982C50.4037 27.1411 50.3414 26.9904 50.2303 26.8793C50.1191 26.7682 49.9684 26.7057 49.8113 26.7057H48.6264C48.155 26.7057 47.7029 26.5185 47.3697 26.1852C47.0363 25.8519 46.849 25.3998 46.849 24.9284C46.849 24.457 47.0363 24.0049 47.3697 23.6716C47.7029 23.3383 48.155 23.1511 48.6264 23.1511H49.8113C52.1005 23.1511 53.9584 25.009 53.9584 27.2982V40.332C53.9584 41.4319 53.5214 42.4867 52.7437 43.2644C51.9659 44.0422 50.9111 44.4792 49.8113 44.4792H49.2188V48.1358C49.2186 48.8185 49.016 49.4858 48.6366 50.0534C48.2572 50.621 47.718 51.0634 47.0872 51.3246C46.4564 51.5857 45.7625 51.6542 45.0928 51.521C44.4231 51.3878 43.8081 51.0594 43.3252 50.5767L37.8912 45.1427C37.7166 44.9799 37.5765 44.7837 37.4794 44.5657C37.3823 44.3477 37.33 44.1123 37.3258 43.8737C37.3216 43.6351 37.3655 43.3981 37.4549 43.1767C37.5443 42.9554 37.6773 42.7544 37.8461 42.5857C38.0149 42.4167 38.2159 42.2838 38.4372 42.1945C38.6585 42.1051 38.8956 42.061 39.1342 42.0653C39.3729 42.0696 39.6082 42.1217 39.8262 42.2189C40.0442 42.316 40.2404 42.4561 40.4032 42.6307L45.6641 47.8917V42.7018C45.6641 42.2305 45.8514 41.7783 46.1848 41.4451C46.518 41.1117 46.9701 40.9245 47.4415 40.9245H49.8113C49.9684 40.9245 50.1191 40.8622 50.2303 40.751C50.3414 40.6399 50.4037 40.4892 50.4037 40.332V27.2982Z" fill="white"/>
</svg>
