<svg width="42" height="42" viewBox="0 0 42 42" fill="none" xmlns="http://www.w3.org/2000/svg">
<rect width="42" height="42" rx="21" fill="#402E32"/>
<path fill-rule="evenodd" clip-rule="evenodd" d="M10.5192 11.4807L10.6065 11.3895C12.9255 9.07034 14.4356 8.45563 16.0468 9.38217C16.5103 9.64869 16.9448 10.0218 17.5357 10.6219L19.348 12.5012C20.349 13.5935 20.5766 14.6412 20.2506 15.8683L20.2057 16.0307L20.1559 16.1922L19.9136 16.9031C19.3951 18.4972 19.6116 19.3966 21.4565 21.2411C23.3752 23.1592 24.2708 23.3161 25.9878 22.7161L26.2939 22.6097L26.6639 22.4896L26.8259 22.4446C28.1301 22.0967 29.2318 22.3743 30.4002 23.542L31.8605 24.9525L32.2904 25.3753C32.767 25.8613 33.0819 26.2463 33.3146 26.6533C34.2353 28.2641 33.62 29.7733 31.2342 32.1502L31.0072 32.3802C30.651 32.7235 30.3182 32.9695 29.8293 33.2016C29.0086 33.5913 28.039 33.7382 26.9124 33.5815C24.1362 33.1954 20.6152 31.0049 16.1537 26.5445C15.7905 26.1815 15.4426 25.8254 15.1098 25.4762L14.464 24.787C8.41245 18.2122 7.87858 14.1733 10.3586 11.6403L10.5192 11.4807ZM16.0765 11.7137C15.6845 11.3273 15.3998 11.0917 15.1488 10.9473C14.5935 10.628 13.994 10.763 12.8845 11.718L12.5358 12.0294C12.475 12.0855 12.4128 12.1438 12.3492 12.2043L11.9494 12.5936L11.9134 12.6386L11.6424 12.9109C10.9874 13.5799 10.6772 14.3963 10.9445 15.8004C11.3832 18.1044 13.3911 21.2299 17.4312 25.269C21.6408 29.4775 24.8482 31.4728 27.1626 31.7947C28.5118 31.9823 29.1999 31.6556 29.9018 30.9366L30.4369 30.3965C30.6879 30.1338 30.9024 29.8958 31.0835 29.6783L31.3305 29.3671C31.9617 28.5263 32.0194 28.0219 31.7494 27.5496C31.6467 27.37 31.4973 27.1729 31.2798 26.9322L30.9847 26.6205L30.8101 26.4458L28.9678 24.6669C28.3522 24.0991 27.9314 24.0186 27.2927 24.189L27.1083 24.242L26.3451 24.5011C24.1313 25.2161 22.5341 24.8694 20.1822 22.5181C17.7463 20.0828 17.4606 18.4565 18.2768 16.115L18.3291 15.9646L18.4739 15.5283L18.5451 15.2503C18.6713 14.6451 18.5272 14.2232 17.8767 13.5726C17.8499 13.5458 17.82 13.5157 17.7874 13.4826L16.0765 11.7137Z" fill="white"/>
</svg>
