<svg width="22" height="23" viewBox="0 0 22 23" fill="none" xmlns="http://www.w3.org/2000/svg">
<path d="M20.79 0H1.21C0.889088 0 0.58132 0.133277 0.354401 0.37051C0.127482 0.607744 0 0.929501 0 1.265V21.735C0 21.9011 0.0312977 22.0656 0.0921059 22.2191C0.152914 22.3726 0.242042 22.512 0.354401 22.6295C0.46676 22.747 0.600149 22.8401 0.746953 22.9037C0.893757 22.9673 1.0511 23 1.21 23H11.748V14.0875H8.888V10.6375H11.748V8.05C11.6888 7.44252 11.7574 6.82885 11.949 6.25202C12.1406 5.67519 12.4506 5.14918 12.8573 4.71087C13.264 4.27257 13.7575 3.93259 14.3031 3.71477C14.8488 3.49696 15.4334 3.40659 16.016 3.45C16.8722 3.44449 17.7279 3.49057 18.579 3.588V6.693H16.83C15.444 6.693 15.18 7.383 15.18 8.3835V10.603H18.48L18.051 14.053H15.18V23H20.79C20.9489 23 21.1062 22.9673 21.253 22.9037C21.3999 22.8401 21.5332 22.747 21.6456 22.6295C21.758 22.512 21.8471 22.3726 21.9079 22.2191C21.9687 22.0656 22 21.9011 22 21.735V1.265C22 1.09888 21.9687 0.934382 21.9079 0.780906C21.8471 0.627429 21.758 0.487976 21.6456 0.37051C21.5332 0.253044 21.3999 0.159865 21.253 0.0962925C21.1062 0.0327203 20.9489 0 20.79 0Z" fill="#402E32"/>
</svg>
