<svg width="24" height="25" viewBox="0 0 24 25" fill="none" xmlns="http://www.w3.org/2000/svg">
<path d="M12.0026 9.71474C11.4304 9.71474 10.871 9.88443 10.3952 10.2024C9.91935 10.5203 9.5485 10.9722 9.32951 11.5008C9.11052 12.0295 9.05323 12.6113 9.16487 13.1725C9.27651 13.7338 9.55207 14.2493 9.95671 14.654C10.3613 15.0586 10.8769 15.3342 11.4381 15.4458C11.9994 15.5575 12.5811 15.5002 13.1098 15.2812C13.6385 15.0622 14.0904 14.6913 14.4083 14.2155C14.7262 13.7397 14.8959 13.1803 14.8959 12.6081C14.8959 12.2281 14.8211 11.8519 14.6757 11.5008C14.5303 11.1498 14.3172 10.8308 14.0485 10.5622C13.7798 10.2935 13.4609 10.0804 13.1098 9.93498C12.7588 9.78958 12.3826 9.71474 12.0026 9.71474ZM23.5876 6.85641C23.5815 5.95546 23.4156 5.06274 23.0976 4.21974C22.8634 3.60288 22.5011 3.04268 22.0346 2.57612C21.568 2.10956 21.0078 1.74724 20.3909 1.51307C19.5479 1.19511 18.6552 1.02921 17.7543 1.02307C16.2493 0.941406 15.8059 0.941406 12.0026 0.941406C8.19927 0.941406 7.75594 0.941406 6.25094 1.02307C5.34999 1.02921 4.45727 1.19511 3.61427 1.51307C2.99741 1.74724 2.43721 2.10956 1.97065 2.57612C1.50409 3.04268 1.14177 3.60288 0.907604 4.21974C0.589645 5.06274 0.423742 5.95546 0.417604 6.85641C0.335937 8.36141 0.335938 8.80474 0.335938 12.6081C0.335938 16.4114 0.335937 16.8547 0.417604 18.3597C0.430162 19.2639 0.595841 20.1593 0.907604 21.0081C1.14074 21.6221 1.50275 22.1791 1.96927 22.6414C2.43383 23.1108 2.99523 23.4731 3.61427 23.7031C4.45727 24.021 5.34999 24.1869 6.25094 24.1931C7.75594 24.2747 8.19927 24.2747 12.0026 24.2747C15.8059 24.2747 16.2493 24.2747 17.7543 24.1931C18.6552 24.1869 19.5479 24.021 20.3909 23.7031C21.01 23.4731 21.5714 23.1108 22.0359 22.6414C22.5025 22.1791 22.8645 21.6221 23.0976 21.0081C23.4153 20.1609 23.5811 19.2645 23.5876 18.3597C23.6693 16.8547 23.6693 16.4114 23.6693 12.6081C23.6693 8.80474 23.6693 8.36141 23.5876 6.85641ZM20.6243 16.1897C20.5868 16.9097 20.4332 17.6189 20.1693 18.2897C19.9428 18.8494 19.6061 19.3578 19.1792 19.7847C18.7523 20.2115 18.2439 20.5483 17.6843 20.7747C17.007 21.0239 16.2939 21.1618 15.5726 21.1831C14.6509 21.1831 14.4059 21.1831 12.0026 21.1831C9.59927 21.1831 9.35427 21.1831 8.4326 21.1831C7.71129 21.1618 6.99817 21.0239 6.32094 20.7747C5.74239 20.5597 5.21993 20.2168 4.7926 19.7714C4.36988 19.3529 4.04342 18.8473 3.83594 18.2897C3.58575 17.6132 3.45165 16.8993 3.43927 16.1781C3.43927 15.2564 3.43927 15.0114 3.43927 12.6081C3.43927 10.2047 3.43927 9.95974 3.43927 9.03807C3.45165 8.31687 3.58575 7.60294 3.83594 6.92641C4.05093 6.34786 4.39392 5.8254 4.83927 5.39807C5.25966 4.97763 5.76475 4.65152 6.32094 4.44141C6.99817 4.19221 7.71129 4.05432 8.4326 4.03307C9.35427 4.03307 9.59927 4.03307 12.0026 4.03307C14.4059 4.03307 14.6509 4.03307 15.5726 4.03307C16.2939 4.05432 17.007 4.19221 17.6843 4.44141C18.2628 4.6564 18.7853 4.99939 19.2126 5.44474C19.6353 5.86328 19.9618 6.36889 20.1693 6.92641C20.4185 7.60364 20.5564 8.31676 20.5776 9.03807C20.5776 9.95974 20.5776 10.2047 20.5776 12.6081C20.5776 15.0114 20.6593 15.2564 20.6243 16.1781V16.1897ZM18.7576 7.50974C18.6187 7.13289 18.3997 6.79066 18.1157 6.50666C17.8317 6.22266 17.4895 6.00365 17.1126 5.86474C16.5952 5.68538 16.0502 5.5985 15.5026 5.60807C14.5926 5.60807 14.3359 5.60807 12.0026 5.60807C9.66927 5.60807 9.4126 5.60807 8.5026 5.60807C7.95225 5.61345 7.40719 5.71615 6.8926 5.91141C6.52152 6.04401 6.18291 6.25407 5.89929 6.52764C5.61566 6.80121 5.39351 7.13202 5.2476 7.49807C5.07818 8.01767 4.9954 8.5616 5.0026 9.10807C5.0026 10.0181 5.0026 10.2747 5.0026 12.6081C5.0026 14.9414 5.0026 15.1981 5.0026 16.1081C5.01417 16.6578 5.11667 17.2018 5.30594 17.7181C5.44485 18.0949 5.66385 18.4372 5.94785 18.7212C6.23185 19.0052 6.57409 19.2242 6.95094 19.3631C7.44872 19.5461 7.97253 19.6485 8.5026 19.6664C9.4126 19.6664 9.66927 19.6664 12.0026 19.6664C14.3359 19.6664 14.5926 19.6664 15.5026 19.6664C16.053 19.661 16.598 19.5583 17.1126 19.3631C17.4895 19.2242 17.8317 19.0052 18.1157 18.7212C18.3997 18.4372 18.6187 18.0949 18.7576 17.7181C18.9529 17.2035 19.0556 16.6584 19.0609 16.1081C19.0609 15.1981 19.0609 14.9414 19.0609 12.6081C19.0609 10.2747 19.0609 10.0181 19.0609 9.10807C19.0613 8.55717 18.9584 8.01108 18.7576 7.49807V7.50974ZM12.0026 17.0647C11.4179 17.0647 10.8389 16.9494 10.2989 16.7253C9.75882 16.5012 9.26829 16.1727 8.85538 15.7587C8.44247 15.3447 8.1153 14.8533 7.89261 14.3127C7.66991 13.772 7.55607 13.1928 7.5576 12.6081C7.55761 11.7261 7.81928 10.864 8.30951 10.1309C8.79973 9.39773 9.49646 8.82651 10.3115 8.48955C11.1265 8.15258 12.0232 8.065 12.888 8.23791C13.7528 8.41082 14.5469 8.83644 15.1697 9.46088C15.7925 10.0853 16.2161 10.8805 16.3867 11.7458C16.5574 12.6111 16.4674 13.5075 16.1283 14.3217C15.7892 15.1358 15.2162 15.831 14.4818 16.3193C13.7473 16.8076 12.8845 17.067 12.0026 17.0647ZM16.6693 9.02641C16.4114 8.99911 16.1727 8.87733 15.9992 8.68454C15.8258 8.49175 15.7298 8.24158 15.7298 7.98224C15.7298 7.7229 15.8258 7.47273 15.9992 7.27994C16.1727 7.08715 16.4114 6.96537 16.6693 6.93807C16.9272 6.96537 17.1658 7.08715 17.3393 7.27994C17.5128 7.47273 17.6087 7.7229 17.6087 7.98224C17.6087 8.24158 17.5128 8.49175 17.3393 8.68454C17.1658 8.87733 16.9272 8.99911 16.6693 9.02641Z" fill="#402E32"/>
</svg>
