<svg width="42" height="42" viewBox="0 0 42 42" fill="none" xmlns="http://www.w3.org/2000/svg">
<path d="M20.9908 0.167831C16.8704 0.167831 12.8425 1.38969 9.41643 3.67888C5.99041 5.96808 3.32015 9.2218 1.74332 13.0286C0.166497 16.8354 -0.246072 21.0243 0.557787 25.0655C1.36165 29.1068 3.34583 32.819 6.25942 35.7326C9.17302 38.6461 12.8852 40.6303 16.9264 41.4342C20.9677 42.2381 25.1566 41.8255 28.9634 40.2487C32.7702 38.6718 36.0239 36.0016 38.3131 32.5755C40.6023 29.1495 41.8242 25.1216 41.8242 21.0012C41.8244 18.2652 41.2857 15.556 40.2388 13.0283C39.1919 10.5006 37.6573 8.20387 35.7227 6.26927C33.7881 4.33467 31.4914 2.8001 28.9637 1.75321C26.4359 0.70632 23.7268 0.167604 20.9908 0.167831ZM27.6148 31.7355C27.5368 31.9299 27.4182 32.1054 27.2668 32.2503C27.1155 32.3951 26.9349 32.5059 26.7372 32.5753C26.5395 32.6446 26.3293 32.6709 26.1206 32.6524C25.912 32.6338 25.7097 32.5709 25.5273 32.4678L19.8717 28.0732L16.2419 31.422C16.1577 31.4842 16.0591 31.5243 15.9554 31.5385C15.8516 31.5526 15.746 31.5405 15.6481 31.5031L16.344 25.2772L16.3663 25.2948L16.3805 25.1719C16.3805 25.1719 26.5576 15.9063 26.9722 15.5115C27.3919 15.1177 27.2534 15.0323 27.2534 15.0323C27.2773 14.5521 26.5002 15.0323 26.5002 15.0323L13.0158 23.7074L7.40021 21.7949C7.40021 21.7949 6.53771 21.4855 6.45646 20.8053C6.37104 20.1303 7.42831 19.7637 7.42831 19.7637L29.7554 10.8939C29.7554 10.8939 31.5908 10.0761 31.5908 11.4303L27.6148 31.7355Z" fill="#402E32"/>
</svg>
