<svg width="24" height="25" viewBox="0 0 24 25" fill="none" xmlns="http://www.w3.org/2000/svg">
<path d="M11.9948 0.941406C9.68735 0.941406 7.43172 1.62564 5.51314 2.90759C3.59457 4.18954 2.09922 6.01163 1.2162 8.14343C0.33318 10.2752 0.102141 12.621 0.552302 14.8841C1.00246 17.1472 2.11361 19.226 3.74522 20.8577C5.37683 22.4893 7.45563 23.6004 9.71874 24.0506C11.9819 24.5007 14.3276 24.2697 16.4594 23.3867C18.5912 22.5036 20.4133 21.0083 21.6953 19.0897C22.9772 17.1712 23.6615 14.9155 23.6615 12.6081C23.6616 11.0759 23.3599 9.55881 22.7737 8.14328C22.1874 6.72776 21.328 5.44159 20.2447 4.35821C19.1613 3.27483 17.8751 2.41548 16.4596 1.82922C15.0441 1.24296 13.5269 0.941279 11.9948 0.941406ZM15.7042 18.6193C15.6606 18.7282 15.5941 18.8265 15.5094 18.9076C15.4246 18.9887 15.3235 19.0507 15.2128 19.0896C15.1021 19.1284 14.9843 19.1431 14.8675 19.1327C14.7506 19.1224 14.6373 19.0871 14.5352 19.0294L11.3681 16.5684L9.3354 18.4437C9.28824 18.4786 9.23306 18.501 9.17496 18.509C9.11686 18.5169 9.05769 18.5101 9.0029 18.4892L9.39257 15.0026L9.40504 15.0125L9.41301 14.9437C9.41301 14.9437 15.1122 9.75493 15.3443 9.53386C15.5794 9.31336 15.5018 9.26553 15.5018 9.26553C15.5152 8.99658 15.0801 9.26553 15.0801 9.26553L7.5288 14.1236L4.38406 13.0526C4.38406 13.0526 3.90106 12.8793 3.85556 12.4984C3.80773 12.1204 4.3998 11.9151 4.3998 11.9151L16.903 6.94798C16.903 6.94798 17.9308 6.49004 17.9308 7.24841L15.7042 18.6193Z" fill="#402E32"/>
</svg>
