<svg width="24" height="24" viewBox="0 0 24 24" fill="none" xmlns="http://www.w3.org/2000/svg">
<path fill-rule="evenodd" clip-rule="evenodd" d="M10.493 14.6032L14.7688 21.5399C14.9558 21.8439 15.2481 21.8404 15.3662 21.8241C15.4843 21.8077 15.7684 21.7352 15.8713 21.3903L21.218 3.33225C21.3115 3.01306 21.1396 2.79559 21.0625 2.71842C20.9876 2.64126 20.7737 2.4764 20.4638 2.56409L2.39294 7.85582C2.05037 7.95637 1.97555 8.24399 1.95918 8.36207C1.94281 8.4825 1.93813 8.78064 2.24095 8.97122L9.25722 13.3592L15.4562 7.09468C15.7965 6.75094 16.3518 6.74743 16.6967 7.08766C17.0416 7.4279 17.044 7.98443 16.7038 8.32817L10.493 14.6032ZM15.2797 23.5856C14.4659 23.5856 13.72 23.1717 13.2804 22.4609L8.74746 15.1056L1.31612 10.458C0.515233 9.95646 0.0966649 9.06321 0.226444 8.12435C0.355055 7.1855 0.999275 6.43956 1.90422 6.17416L19.9751 0.88243C20.8064 0.63924 21.6973 0.869569 22.31 1.47988C22.9226 2.09604 23.1506 2.99631 22.9028 3.83111L17.5561 21.888C17.2883 22.7964 16.5401 23.4383 15.6035 23.5634C15.4936 23.5775 15.3873 23.5856 15.2797 23.5856Z" fill="#D8D8D8"/>
</svg>
